<?xml version="1.0" encoding="utf-8"?>
<!-- Generator: Adobe Illustrator 22.1.0, SVG Export Plug-In . SVG Version: 6.00 Build 0)  -->
<svg version="1.1" id="Layer_1" xmlns="http://www.w3.org/2000/svg" xmlns:xlink="http://www.w3.org/1999/xlink" x="0px" y="0px"
	 viewBox="0 0 224 38" style="enable-background:new 0 0 224 38;" xml:space="preserve">
<style type="text/css">
	.st0{display:none;}
	.st1{fill:#FFFFFF;}
</style>
<rect class="st0" width="227" height="38"/>
<g>
	<path class="st1" d="M47.8,6h5.5c1.5,0,2.6,0.1,3.4,0.4c0.8,0.3,1.4,0.7,1.8,1.3s0.7,1.2,0.8,2.1c0.1,0.8,0.2,2,0.2,3.7v2.3
		c0,1.7-0.1,3-0.4,3.8c-0.3,0.8-0.8,1.4-1.5,1.8c-0.7,0.4-1.7,0.6-2.9,0.6h-1.5v10.8h-5.5V6z M53.3,10.6v6.8c0.2,0,0.3,0,0.4,0
		c0.5,0,0.8-0.2,1-0.5c0.2-0.3,0.3-1,0.3-2v-2.2c0-0.9-0.1-1.5-0.3-1.8C54.5,10.8,54,10.6,53.3,10.6z"/>
	<path class="st1" d="M61.1,6H65c2.6,0,4.3,0.1,5.2,0.4c0.9,0.3,1.7,0.9,2.2,2c0.6,1,0.9,2.7,0.9,5c0,2.1-0.2,3.5-0.6,4.2
		c-0.4,0.7-1.2,1.2-2.4,1.3c1.1,0.3,1.8,0.8,2.2,1.4s0.6,1.1,0.7,1.6c0.1,0.5,0.1,1.8,0.1,4v7.1h-5.1V24c0-1.4-0.1-2.3-0.3-2.7
		c-0.2-0.3-0.6-0.5-1.4-0.5v12.1h-5.5V6z M66.6,10.6v6c0.6,0,1-0.1,1.3-0.3s0.4-0.9,0.4-2.1v-1.5c0-0.9-0.1-1.4-0.4-1.7
		C67.7,10.7,67.2,10.6,66.6,10.6z"/>
	<path class="st1" d="M84.9,6L88,32.9h-5.6l-0.3-4.8h-2l-0.3,4.8h-5.6L77,6H84.9z M82,23.3c-0.3-3-0.6-6.8-0.8-11.3
		c-0.6,5.1-0.9,8.9-1,11.3H82z"/>
	<path class="st1" d="M98.9,6l-4,17.1v9.7h-5v-9.7L86.1,6h5c0.8,5.2,1.2,8.8,1.3,10.6c0.3-2.9,0.8-6.4,1.5-10.6H98.9z"/>
	<path class="st1" d="M110.4,6v17.6h1.5v4.6h-1.5v4.7h-5.2v-4.7h-6.2v-4.6L103.4,6H110.4z M105.1,23.6V12.1l-2.3,11.4H105.1z"/>
	<path class="st1" d="M125.8,17.7h-5.5V13c0-1.4-0.1-2.2-0.2-2.5s-0.4-0.5-0.8-0.5c-0.4,0-0.7,0.2-0.9,0.6c-0.1,0.4-0.2,1.3-0.2,2.7
		v12.5c0,1.3,0.1,2.2,0.2,2.6c0.1,0.4,0.4,0.6,0.8,0.6c0.4,0,0.7-0.2,0.8-0.6c0.1-0.4,0.2-1.3,0.2-2.8v-3.4h5.5v1
		c0,2.8-0.2,4.8-0.5,5.9c-0.3,1.2-1,2.2-2,3.1s-2.3,1.3-3.9,1.3c-1.6,0-2.9-0.4-3.9-1.1c-1-0.7-1.7-1.8-2.1-3.1
		c-0.3-1.3-0.5-3.3-0.5-5.9v-7.9c0-1.9,0.1-3.4,0.2-4.4c0.1-1,0.4-1.9,0.9-2.8s1.2-1.6,2.1-2.1c0.9-0.5,2-0.8,3.1-0.8
		c1.6,0,2.9,0.4,4,1.2s1.7,1.8,2.1,3s0.5,3,0.5,5.5V17.7z"/>
	<path class="st1" d="M140.2,21.8c0,2.7,0,4.6-0.1,5.7s-0.4,2.1-0.9,3.1c-0.5,0.9-1.2,1.6-2.1,2.1c-0.9,0.5-1.9,0.7-3.1,0.7
		c-1.1,0-2.1-0.2-3-0.7c-0.9-0.5-1.6-1.2-2.2-2.1c-0.5-0.9-0.9-2-1-3.1c-0.1-1.1-0.2-3-0.2-5.8v-4.6c0-2.7,0-4.6,0.1-5.7
		c0.1-1.1,0.4-2.1,0.9-3.1s1.2-1.6,2.1-2.1s1.9-0.7,3.1-0.7c1.1,0,2.1,0.2,3,0.7c0.9,0.5,1.6,1.2,2.2,2.1c0.5,0.9,0.9,2,1,3.1
		c0.1,1.1,0.2,3,0.2,5.8V21.8z M134.8,12.9c0-1.3-0.1-2.1-0.2-2.4c-0.1-0.3-0.3-0.5-0.7-0.5c-0.3,0-0.5,0.1-0.7,0.4
		c-0.2,0.3-0.2,1.1-0.2,2.5v12.6c0,1.6,0,2.5,0.1,2.9c0.1,0.4,0.3,0.5,0.7,0.5c0.4,0,0.6-0.2,0.7-0.6s0.2-1.4,0.2-3V12.9z"/>
	<path class="st1" d="M147.7,6v21.5h3.3v5.4h-8.8V6H147.7z"/>
	<path class="st1" d="M164.4,21.8c0,2.7,0,4.6-0.1,5.7c-0.1,1.1-0.4,2.1-0.9,3.1s-1.2,1.6-2.1,2.1c-0.9,0.5-1.9,0.7-3.1,0.7
		c-1.1,0-2.1-0.2-3-0.7c-0.9-0.5-1.6-1.2-2.2-2.1s-0.9-2-1-3.1c-0.1-1.1-0.2-3-0.2-5.8v-4.6c0-2.7,0-4.6,0.1-5.7
		c0.1-1.1,0.4-2.1,0.9-3.1s1.2-1.6,2.1-2.1c0.9-0.5,1.9-0.7,3.1-0.7c1.1,0,2.1,0.2,3,0.7c0.9,0.5,1.6,1.2,2.2,2.1
		c0.5,0.9,0.9,2,1,3.1c0.1,1.1,0.2,3,0.2,5.8V21.8z M159,12.9c0-1.3-0.1-2.1-0.2-2.4c-0.1-0.3-0.3-0.5-0.7-0.5
		c-0.3,0-0.5,0.1-0.7,0.4s-0.2,1.1-0.2,2.5v12.6c0,1.6,0,2.5,0.1,2.9c0.1,0.4,0.3,0.5,0.7,0.5c0.4,0,0.6-0.2,0.7-0.6s0.2-1.4,0.2-3
		V12.9z"/>
	<path class="st1" d="M166.4,6h3.9c2.6,0,4.3,0.1,5.2,0.4c0.9,0.3,1.7,0.9,2.2,2s0.9,2.7,0.9,5c0,2.1-0.2,3.5-0.6,4.2
		c-0.4,0.7-1.2,1.2-2.4,1.3c1.1,0.3,1.8,0.8,2.2,1.4c0.4,0.6,0.6,1.1,0.7,1.6c0.1,0.5,0.1,1.8,0.1,4v7.1h-5.1V24
		c0-1.4-0.1-2.3-0.3-2.7c-0.2-0.3-0.6-0.5-1.4-0.5v12.1h-5.5V6z M171.9,10.6v6c0.6,0,1-0.1,1.3-0.3s0.4-0.9,0.4-2.1v-1.5
		c0-0.9-0.1-1.4-0.4-1.7S172.5,10.6,171.9,10.6z"/>
	<path class="st1" d="M190.2,6l3.1,26.9h-5.6l-0.3-4.8h-1.9l-0.3,4.8h-5.6L182.3,6H190.2z M187.3,23.3c-0.3-3-0.6-6.8-0.8-11.3
		c-0.6,5.1-0.9,8.9-1,11.3H187.3z"/>
	<path class="st1" d="M194.2,6h4.1c2.6,0,4.4,0.2,5.3,0.5c0.9,0.3,1.6,0.8,2.1,1.5c0.5,0.7,0.8,1.5,0.9,2.4c0.1,0.9,0.2,2.6,0.2,5.1
		v9.4c0,2.4-0.1,4-0.3,4.8c-0.2,0.8-0.5,1.5-0.9,1.9c-0.4,0.5-1,0.8-1.6,1c-0.6,0.2-1.6,0.3-2.9,0.3h-6.9V6z M199.6,10.6v17.7
		c0.8,0,1.3-0.2,1.5-0.6c0.2-0.4,0.3-1.5,0.3-3.3V14c0-1.2,0-2-0.1-2.3c-0.1-0.3-0.2-0.6-0.4-0.8C200.7,10.7,200.2,10.6,199.6,10.6z
		"/>
	<path class="st1" d="M221.3,21.8c0,2.7,0,4.6-0.1,5.7c-0.1,1.1-0.4,2.1-0.9,3.1s-1.2,1.6-2.1,2.1c-0.9,0.5-1.9,0.7-3.1,0.7
		c-1.1,0-2.1-0.2-3-0.7c-0.9-0.5-1.6-1.2-2.2-2.1s-0.9-2-1-3.1c-0.1-1.1-0.2-3-0.2-5.8v-4.6c0-2.7,0-4.6,0.1-5.7
		c0.1-1.1,0.4-2.1,0.9-3.1s1.2-1.6,2.1-2.1c0.9-0.5,1.9-0.7,3.1-0.7c1.1,0,2.1,0.2,3,0.7c0.9,0.5,1.6,1.2,2.2,2.1
		c0.5,0.9,0.9,2,1,3.1c0.1,1.1,0.2,3,0.2,5.8V21.8z M215.9,12.9c0-1.3-0.1-2.1-0.2-2.4c-0.1-0.3-0.3-0.5-0.7-0.5
		c-0.3,0-0.5,0.1-0.7,0.4s-0.2,1.1-0.2,2.5v12.6c0,1.6,0,2.5,0.1,2.9c0.1,0.4,0.3,0.5,0.7,0.5c0.4,0,0.6-0.2,0.7-0.6s0.2-1.4,0.2-3
		V12.9z"/>
</g>
<path class="st1" d="M47,36.1c-14.9,0-29.7,0-44.6,0c4.3-7,8.6-13.9,12.8-20.8c1.7,2.3,3.4,4.5,5.1,6.8c3.4-7,6.8-13.9,10.2-20.9
	C36,13,41.5,24.5,47,36.1z M30.5,4.9c-0.8,1.7-1.6,3.3-2.4,4.9c-1,2-2,4.1-3,6.1C25,16,25,16.3,25,16.3c0.5,0.3,0.9,0.7,1.4,0.9
	c1.5,0.4,2.9-0.8,3.4-2.1c0.1-0.3,0.1-0.7,0.6-0.7c0.5,0,0.5,0.4,0.6,0.7c0.7,1.9,2.7,3,4.5,1.6c0.3-0.2,0.4-0.4,0.2-0.8
	c-1.1-2.3-2.2-4.5-3.2-6.8C31.8,7.7,31.2,6.3,30.5,4.9z M18.3,21.7c-0.9-1.3-1.8-2.5-2.8-3.8c-0.9,1.4-1.7,2.7-2.5,4
	C14.7,23.6,16.5,23.5,18.3,21.7z"/>
</svg>
